<svg xmlns="http://www.w3.org/2000/svg" width="100" height="88" viewBox="0 0 100 88">
    <defs>
        <linearGradient id="a" x1="18.033%" x2="81.967%" y1=".317%" y2="100.317%">
            <stop offset="0%" stop-color="#C3DD89"/>
            <stop offset="100%" stop-color="#91B951"/>
        </linearGradient>
    </defs>
    <g fill="none" fill-rule="evenodd">
        <path fill="#FFF" d="M-184-2872h1440v5194H-184z"/>
        <g fill-rule="nonzero">
            <path fill="url(#a)" d="M50 0l43.301 25v50L50 100 6.699 75V25z" transform="rotate(90 53 47)"/>
            <path fill="#FFF" d="M72.636 46.896l-5.665-8.723 5.665-8.723c.455-.704.477-1.59.09-2.34a2.282 2.282 0 0 0-2.001-1.204h-15.97v-3.589c-.023-1.272-1.07-2.294-2.344-2.317H29.253C28 20.023 26.978 21.068 27 22.317v43.411A2.28 2.28 0 0 0 29.275 68a2.28 2.28 0 0 0 2.275-2.272v-20.74h8.873v3.135a2.324 2.324 0 0 0 2.297 2.317h28.005c1.274-.023 2.297-1.045 2.275-2.317 0-.432-.137-.863-.364-1.227zM31.55 40.445V24.543h18.655v15.902H31.55zm30.803-1l4.186 6.452H44.972v-.909h7.44c1.273.023 2.297-.977 2.343-2.249V30.45h11.784l-4.186 6.475c-.5.772-.5 1.749 0 2.521z"/>
        </g>
    </g>
</svg>
