<svg xmlns="http://www.w3.org/2000/svg" width="88" height="100" viewBox="0 0 88 100">
    <defs>
        <linearGradient id="a" x1="100%" x2="0%" y1="23.574%" y2="80.689%">
            <stop offset="0%" stop-color="#8D5EA4"/>
            <stop offset="100%" stop-color="#54306A"/>
        </linearGradient>
    </defs>
    <g fill="none" fill-rule="evenodd">
        <path fill="#FFF" d="M-580-2587H860v5194H-580z"/>
        <g fill-rule="nonzero">
            <path fill="url(#a)" d="M50 0l43.301 25v50L50 100 6.699 75V25z" transform="translate(-6)"/>
            <g fill="#FFF">
                <path d="M69.69 37.135l-25.339-10.94a2.146 2.146 0 0 0-1.703 0l-25.34 10.94a2.173 2.173 0 0 0-1.307 2c.001.87.518 1.655 1.313 1.997l25.34 10.867a2.15 2.15 0 0 0 1.692 0l25.34-10.867a2.172 2.172 0 0 0 1.313-1.997c0-.87-.514-1.657-1.308-2zM43.5 47.637l-19.846-8.51 19.846-8.57 19.846 8.57-19.846 8.51zM70.824 60.01a2.154 2.154 0 0 0-2.835-1.14L43.5 69.442 19.011 58.87a2.152 2.152 0 0 0-2.835 1.14 2.177 2.177 0 0 0 1.133 2.854l25.34 10.94a2.15 2.15 0 0 0 1.703 0l25.34-10.94a2.179 2.179 0 0 0 1.132-2.854z"/>
                <path d="M70.827 49.147A2.156 2.156 0 0 0 67.993 48L43.5 58.505 19.008 48a2.155 2.155 0 0 0-2.834 1.147A2.178 2.178 0 0 0 17.314 52l25.34 10.867a2.15 2.15 0 0 0 1.693 0l25.34-10.867a2.179 2.179 0 0 0 1.14-2.852z"/>
            </g>
        </g>
    </g>
</svg>
