<svg xmlns="http://www.w3.org/2000/svg" width="32" height="32" viewBox="0 0 32 32">
    <g fill="#FFFC00" fill-rule="nonzero">
        <path d="M26.423 0H5.585A5.588 5.588 0 0 0 0 5.577v20.838C0 29.5 2.5 31.992 5.577 32h20.838c3.085 0 5.577-2.5 5.585-5.577V5.585C32 2.5 29.5 0 26.423 0zm4.039 26.423a4.038 4.038 0 0 1-4.039 4.039H5.585a4.05 4.05 0 0 1-4.047-4.039V5.585a4.05 4.05 0 0 1 4.039-4.047h20.838a4.05 4.05 0 0 1 4.047 4.039v20.846z"/>
        <path d="M11.992 21.615H9.154v-2.407a.771.771 0 0 0-.77-.77.771.771 0 0 0-.769.77v2.407H4.777a.771.771 0 0 0-.77.77c0 .423.347.769.77.769h2.838v2.87c0 .422.347.768.77.768.423 0 .769-.346.769-.769v-2.87h2.838c.423 0 .77-.345.77-.768a.771.771 0 0 0-.77-.77zM11.992 8.385H4.777a.771.771 0 0 0-.77.769c0 .423.347.77.77.77h7.215c.423 0 .77-.347.77-.77a.771.771 0 0 0-.77-.77zM26.423 24.077h-7.215a.771.771 0 0 0-.77.77c0 .422.347.768.77.768h7.215c.423 0 .77-.346.77-.769a.771.771 0 0 0-.77-.77zM26.423 20.462h-7.215a.771.771 0 0 0-.77.769c0 .423.347.769.77.769h7.215c.423 0 .77-.346.77-.77a.771.771 0 0 0-.77-.768zM26.123 11.1l-.008-.008-2.061-2.061 2.061-2.062a.766.766 0 1 0-1.084-1.084l-2.062 2.061-2.061-2.061c-.3-.3-.785-.3-1.085-.008-.3.3-.3.785-.008 1.085l.008.007 2.062 2.062-2.062 2.061a.766.766 0 1 0 1.085 1.085l2.061-2.062 2.062 2.062c.3.3.784.3 1.084.008.3-.3.3-.785.008-1.085z"/>
    </g>
</svg>
