<svg xmlns="http://www.w3.org/2000/svg" width="23" height="32" viewBox="0 0 23 32">
    <path fill="#91B951" fill-rule="nonzero" d="M22.154 3.614V.904A.916.916 0 0 0 21.23 0a.916.916 0 0 0-.923.903v4.518h-3.49a4.842 4.842 0 0 0-3.803 1.843l-3.803 4.905-6.397 1.708C1.154 14.32.01 15.792 0 17.482v2.394c.01 2.06 1.726 3.722 3.83 3.722h.5c.692 2.52 3.34 4.002 5.916 3.325 1.652-.443 2.954-1.708 3.397-3.325h6.665v7.499c0 .496.415.903.923.903a.916.916 0 0 0 .923-.903V3.614zM8.982 25.287C7.338 25.287 6 23.977 6 22.37s1.338-2.918 2.982-2.918c1.643 0 2.981 1.31 2.981 2.918s-1.33 2.918-2.981 2.918zm11.326-3.505h-6.536c-.323-2.593-2.732-4.427-5.372-4.12-2.197.262-3.932 1.96-4.21 4.12h-.368c-1.09.01-1.976-.85-1.985-1.915v-2.385c.01-.868.6-1.627 1.458-1.861l6.702-1.79a.902.902 0 0 0 .49-.325l4.005-5.14a2.956 2.956 0 0 1 2.336-1.13h3.48v14.546z"/>
</svg>
