<svg xmlns="http://www.w3.org/2000/svg" width="24" height="16" viewBox="0 0 24 16">
    <path fill="#91B951" fill-rule="nonzero" d="M23.824 6.946c.12.197.182.425.176.656-.008.208-.068.41-.176.587-2.459 4.194-6.915 6.962-11.829 6.946C7.081 15.119 2.63 12.388.167 8.186a1.237 1.237 0 0 1 0-1.24C2.627 2.752 7.09-.005 12 0c4.91.005 9.36 2.744 11.824 6.946zM12 12.68c3.805 0 7.227-2 9.312-5.112C19.227 4.456 15.816 2.456 12 2.456c-3.815 0-7.236 2-9.332 5.111C4.764 10.68 8.185 12.68 12 12.68zm4.733-5.48c.03.12.041.245.035.368.008.125-.002.25-.03.371-.282 2.424-2.18 4.402-4.738 4.402a4.773 4.773 0 0 1 0-9.546c2.552 0 4.45 1.982 4.733 4.406zm-7.052.368c.01 2.998 4.49 2.966 4.631 0-.141-2.967-4.631-2.994-4.631 0z"/>
</svg>
