<svg xmlns="http://www.w3.org/2000/svg" width="22" height="20" viewBox="0 0 22 20">
    <defs>
        <linearGradient id="a" x1="100%" x2="0%" y1="23.574%" y2="80.689%">
            <stop offset="0%" stop-color="#8D5EA4"/>
            <stop offset="100%" stop-color="#54306A"/>
        </linearGradient>
    </defs>
    <path fill="url(#a)" fill-rule="nonzero" d="M16.536 0C14.266 0 12.832 1.105 12 2.104 11.168 1.105 9.735 0 7.464 0 3.597 0 1 3.582 1 6.927c0 4.87 9.354 11.396 10.42 12.124a1.028 1.028 0 0 0 1.16 0C13.645 18.323 23 11.797 23 6.927 23 3.582 20.402 0 16.536 0zM12 16.95C8.316 14.33 3.056 9.64 3.056 6.926c0-2.042 1.532-4.871 4.408-4.871 2.616 0 3.54 2.26 3.575 2.349.15.396.53.656.955.66h.007c.422 0 .802-.262.958-.654.038-.096.962-2.355 3.577-2.355 2.876 0 4.409 2.828 4.409 4.87 0 2.711-5.262 7.402-8.945 10.023z" transform="translate(-1)"/>
</svg>
