<svg xmlns="http://www.w3.org/2000/svg" width="20" height="20" viewBox="0 0 20 20">
    <g fill="#54306A" fill-rule="nonzero">
        <path d="M10 1.8c2.667 0 2.989 0 4.044.056.635.015 1.263.139 1.856.366A3.333 3.333 0 0 1 17.778 4.1c.22.594.336 1.222.344 1.856 0 1.055.056 1.366.056 4.044 0 2.678 0 2.989-.056 4.044a5.556 5.556 0 0 1-.344 1.856 3.333 3.333 0 0 1-1.878 1.878 5.556 5.556 0 0 1-1.856.344c-1.055 0-1.366.056-4.044.056-2.678 0-2.989 0-4.044-.056a5.556 5.556 0 0 1-1.856-.344A3.333 3.333 0 0 1 2.222 15.9a5.556 5.556 0 0 1-.344-1.856c0-1.055-.056-1.366-.056-4.044 0-2.678 0-2.989.056-4.044A5.556 5.556 0 0 1 2.222 4.1 3.333 3.333 0 0 1 4.1 2.222a5.556 5.556 0 0 1 1.856-.344c1.055 0 1.366-.056 4.044-.056V1.8zM10 0C7.289 0 6.944 0 5.878.056a7.344 7.344 0 0 0-2.422.466A5.111 5.111 0 0 0 .522 3.444a7.344 7.344 0 0 0-.466 2.423C0 6.944 0 7.289 0 10c0 2.711 0 3.056.056 4.122.017.828.175 1.647.466 2.422a5.111 5.111 0 0 0 2.922 2.934 7.344 7.344 0 0 0 2.423.466c1.11 0 1.41.056 4.122.056 2.711 0 3.055 0 4.122-.056a7.344 7.344 0 0 0 2.422-.466 5.111 5.111 0 0 0 2.923-2.922 7.344 7.344 0 0 0 .466-2.423c0-1.11.056-1.41.056-4.122 0-2.711 0-3.055-.056-4.122a7.344 7.344 0 0 0-.466-2.422 5.111 5.111 0 0 0-2.9-2.945 7.344 7.344 0 0 0-2.423-.466C13.056 0 12.711 0 10 0z"/>
        <path d="M10 4.867a5.133 5.133 0 1 0 0 10.266 5.133 5.133 0 0 0 0-10.266zm0 8.466a3.333 3.333 0 1 1 0-6.666 3.333 3.333 0 0 1 0 6.666z"/>
        <circle cx="15.333" cy="4.667" r="1.2"/>
    </g>
</svg>
