<svg id="Layer_1" data-name="Layer 1" xmlns="http://www.w3.org/2000/svg" viewBox="0 0 718.8506 306.2411"><defs><style>.cls-1{fill:#8bb047;}.cls-2{fill:#4e355c;}</style></defs><title>evo</title><polygon class="cls-1" points="134.726 152.597 11.039 80.314 134.726 8.031 258.414 80.314 134.726 152.597"/><polygon class="cls-1" points="194.502 265.129 142.012 295.805 142.012 165.281 194.502 134.605 194.502 265.129"/><polygon class="cls-1" points="259.111 227.371 206.621 258.047 206.621 127.523 259.111 96.848 259.111 227.371"/><path class="cls-2" d="M127.885,164.8623v33.535L8.4153,128.5846V95.05ZM8.4153,144.9567v33.5345l119.47,69.8128V214.7689Zm0,49.9066v33.5346l119.47,69.8127V264.6755Z"/><path class="cls-1" d="M336.8921,232.4559h-4.6348V248.538h-9.8V207.8861h9.8v15.7188h3.7691l8.8178-15.7188H355.71l-11.1679,18.7622,12.5639,21.89H345.52Zm88.56-4.5691,7.2611-20.0007h10.33l-13.6806,32.2481c-4.2161,9.6-12.7979,11.3528-20.189,6.2006l4.565-6.88c2.0811,1.8247,6.88,2.8044,7.7078-1.553l-15.84-30.0153h10.4145Zm84.8287-6.4875,6.6445-13.5132h11.1963l-11.3633,20.1582,11.67,20.4937H517.1211l-6.84-13.7647L503.44,248.538H492.16l11.6435-20.4937-11.3359-20.1582h11.1679Zm105.63,27.1387H606.166V232.0624H591.7314V248.538h-9.8V207.8861h9.8v16.6377H606.166V207.8861h9.7451Zm83.3614-40.6519h9.8V248.538h-9.8V224.9071L684.67,248.538h-9.8V207.8861h9.8v23.6587Z"/><path class="cls-2" d="M674.8055,75.9907h-51.16c-24.72,0-35.64,9.29-35.64,34.86v28.67c0,25.56,10.92,34.85,35.64,34.85h51.16c24.72,0,35.63-9.29,35.63-34.85v-28.67C710.4353,85.2807,699.5252,75.9907,674.8055,75.9907Zm14.38,63.53c0,8.77-4.86,15.6-14.38,15.6h-51.16c-9.53,0-14.38-6.83-14.38-15.6v-28.67c0-8.78,4.85-15.6,14.38-15.6h51.16c9.5195,0,14.38,6.82,14.38,15.6Zm-185.7562,34.85a13.1575,13.1575,0,0,1-11.48-6.7284l-49.9834-89.25a2.1625,2.1625,0,0,1,1.8976-3.2h18.4607a3.6391,3.6391,0,0,1,3.19,1.8886l41.6015,75.8193a2.9177,2.9177,0,0,0,5.1158,0l41.6015-75.8193a3.6392,3.6392,0,0,1,3.19-1.8886h18.4607a2.1625,2.1625,0,0,1,1.8977,3.2l-49.9835,89.25a13.1575,13.1575,0,0,1-11.48,6.7284ZM325.8909,93.4136c4.7827-10.4207,15.8295-17.4229,29.2178-17.4229H424.516a2.9794,2.9794,0,0,1,2.9794,2.9794V92.271A2.9794,2.9794,0,0,1,424.516,95.25H358.2878a14.9228,14.9228,0,0,0-14.9228,14.9228v5.3873h81.151a2.9794,2.9794,0,0,1,2.9794,2.9794v12.4834a2.9794,2.9794,0,0,1-2.9794,2.9794H343.365V139.39a14.9228,14.9228,0,0,0,14.9228,14.9228H424.516a2.9794,2.9794,0,0,1,2.9794,2.9794v13.3009a2.9794,2.9794,0,0,1-2.9794,2.9794H355.1087c-13.3883,0-24.5788-6.9375-29.2178-17.4229C320.2477,143.3944,320.0569,106.1248,325.8909,93.4136Z"/></svg>