<svg xmlns="http://www.w3.org/2000/svg" width="32" height="33" viewBox="0 0 32 33">
    <path fill="#FFFFFF" fill-rule="nonzero" d="M25.304 19.852l3.713 3.726c.683.677 1.041 1.482 1.041 2.32 0 .832-.351 1.644-1.02 2.34-.292.305-.59.596-.88.873-.426.413-.832.798-1.184 1.224-.007.014-.02.02-.027.034-1.028 1.116-2.34 1.678-3.902 1.678-.136 0-.285-.007-.427-.014-2.32-.149-4.396-1.021-5.952-1.759-4.071-1.968-7.636-4.761-10.598-8.299-2.442-2.935-4.079-5.674-5.174-8.63-.447-1.204-1.028-3.044-.866-5.019a4.948 4.948 0 0 1 1.468-3.145l2.3-2.32.013-.013c.676-.65 1.474-.994 2.3-.994.825 0 1.61.345 2.265.994.44.406.866.839 1.272 1.258.203.216.42.433.629.642l1.846 1.847c1.42 1.42 1.42 3.26 0 4.68-.19.19-.379.386-.568.575-.5.508-1.014 1.035-1.57 1.542.414.914.982 1.813 1.827 2.882 1.745 2.144 3.565 3.8 5.567 5.072.196.122.426.237.67.359.168.088.344.176.52.27l2.137-2.13c.683-.683 1.482-1.042 2.313-1.042.84 0 1.63.366 2.287 1.049zm2.421 7.122c.69-.717.69-1.427-.007-2.117l-3.727-3.727-.013-.013c-.21-.23-.555-.494-.974-.494-.426 0-.791.277-1.021.507l-2.314 2.313c-.115.115-.466.467-1.028.467-.223 0-.44-.054-.67-.17-.026-.013-.053-.033-.08-.047-.197-.121-.426-.236-.67-.358a9.235 9.235 0 0 1-.832-.453c-2.171-1.373-4.14-3.166-6.006-5.465l-.007-.007c-1.028-1.305-1.704-2.401-2.184-3.564l-.02-.061c-.122-.386-.23-.954.351-1.536.007-.013.02-.02.034-.033a35.303 35.303 0 0 0 1.697-1.65c.197-.19.386-.386.582-.582.717-.717.717-1.38 0-2.097L8.99 6.04c-.217-.223-.433-.44-.643-.656a34.15 34.15 0 0 0-1.217-1.21l-.02-.02c-.217-.217-.562-.474-.988-.474-.345 0-.697.169-1.028.48L2.787 6.466a3.105 3.105 0 0 0-.933 2.01c-.101 1.237.129 2.55.758 4.233 1.02 2.76 2.563 5.33 4.87 8.11 2.793 3.334 6.154 5.965 9.983 7.819 1.4.67 3.266 1.454 5.275 1.582.102.007.21.007.311.007 1.055 0 1.86-.345 2.543-1.075.42-.494.866-.934 1.306-1.353.29-.284.561-.541.825-.825-.007.007-.007 0 0 0zM17.295 7.623a.903.903 0 0 1-.737-1.055.918.918 0 0 1 1.055-.744 10.432 10.432 0 0 1 5.648 2.929A10.432 10.432 0 0 1 26.19 14.4c.08.5-.25.974-.751 1.055-.054.007-.102.014-.156.014a.908.908 0 0 1-.9-.758 8.622 8.622 0 0 0-2.42-4.667 8.577 8.577 0 0 0-4.668-2.421zm14.691 6.513a.896.896 0 0 1-.744 1.042c-.054.007-.101.014-.155.014a.908.908 0 0 1-.9-.758 15.323 15.323 0 0 0-4.308-8.313c-2.287-2.279-5.161-3.774-8.313-4.308a.918.918 0 0 1-.75-1.055.91.91 0 0 1 1.048-.744 17.162 17.162 0 0 1 9.3 4.822 17.162 17.162 0 0 1 4.822 9.3z"/>
</svg>
