<svg xmlns="http://www.w3.org/2000/svg" width="12" height="15" viewBox="0 0 12 15">
    <g fill="none" fill-rule="evenodd">
        <path d="M-1151-15H289v5352h-1440z"/>
        <path fill="#fffc00" fill-rule="nonzero" d="M6.988 10.505c.42 0 1.23-.838 1.649-.883.417-.036.831.093 1.154.36l1.11.898.675.554c.486.397.566 1.108.18 1.603l-1.26 1.767a.45.45 0 0 1-.405.195C4.315 14.375-.049 9.479.001 3.675c-.003-1.037.133-2.07.404-3.07A.285.285 0 0 1 .615.41L3 .02a1.095 1.095 0 0 1 1.29.884l.21.899.27 1.498c.08.423 0 .86-.225 1.228-.225.374-1.29.749-1.5 1.108a8.449 8.449 0 0 0 3.914 5.018v-.15h.03z"/>
    </g>
</svg>
