<svg xmlns="http://www.w3.org/2000/svg" width="43" height="32" viewBox="0 0 43 32">
    <g fill="#91b951" fill-rule="nonzero">
        <path d="M1.433 21.144H12.9c.792 0 1.433-.63 1.433-1.41V9.868c0-.778-.641-1.41-1.433-1.41H1.433C.642 8.458 0 9.09 0 9.868v9.868c0 .778.642 1.41 1.433 1.41zm0-1.41V17.29l3.168-3.047 4.026 3.882a.727.727 0 0 0 1.015-.011.698.698 0 0 0-.011-.999l-.854-.822 1.428-1.373 2.695 2.595v2.22H1.433zM12.9 9.868v5.676l-2.196-2.114a.725.725 0 0 0-1.003 0l-1.95 1.875-2.649-2.547a.725.725 0 0 0-1.003 0l-2.666 2.56v-5.45H12.9zM41.567 0H17.2c-.792 0-1.433.631-1.433 1.41v18.325c0 .778.641 1.41 1.433 1.41h24.367c.791 0 1.433-.632 1.433-1.41V1.41C43 .63 42.358 0 41.567 0zm0 1.41v9.655l-4.88-4.693a.726.726 0 0 0-1.003 0l-4.175 4.013L26 5.087a.725.725 0 0 0-1.003 0L17.2 12.59V1.41h24.367zM17.2 19.735v-5.183c.01-.009.024-.012.035-.022l8.267-7.953 10.183 9.797a.726.726 0 0 0 .695.175.71.71 0 0 0 .501-.504.698.698 0 0 0-.193-.679l-4.151-3.994 3.65-3.51 5.38 5.177v6.696H17.2zM41.567 23.963H1.433c-.791 0-1.433.631-1.433 1.41v4.229c0 .778.642 1.41 1.433 1.41h40.134c.791 0 1.433-.632 1.433-1.41v-4.229c0-.779-.642-1.41-1.433-1.41zm0 5.639H1.433v-4.229h2.15v1.41c0 .389.321.705.717.705a.71.71 0 0 0 .717-.705v-1.41H6.45v.705c0 .389.32.705.717.705a.71.71 0 0 0 .716-.705v-.705h1.434v.705c0 .389.32.705.716.705a.71.71 0 0 0 .717-.705v-.705h1.433v1.41c0 .389.321.705.717.705a.71.71 0 0 0 .717-.705v-1.41h1.433v.705c0 .389.32.705.717.705a.71.71 0 0 0 .716-.705v-.705h1.434v.705c0 .389.32.705.716.705a.71.71 0 0 0 .717-.705v-.705h1.433v1.41c0 .389.321.705.717.705a.711.711 0 0 0 .717-.705v-1.41h1.433v.705c0 .389.321.705.717.705a.71.71 0 0 0 .716-.705v-.705h1.434v.705c0 .389.32.705.716.705a.71.71 0 0 0 .717-.705v-.705h1.433v1.41c0 .389.321.705.717.705a.71.71 0 0 0 .717-.705v-1.41h1.433v.705c0 .389.32.705.717.705a.71.71 0 0 0 .716-.705v-.705h1.434v.705c0 .389.32.705.716.705a.71.71 0 0 0 .717-.705v-.705h1.433v1.41c0 .389.321.705.717.705a.71.71 0 0 0 .717-.705v-1.41h2.15v4.229z"/>
    </g>
</svg>
