<svg xmlns="http://www.w3.org/2000/svg" width="20" height="12" viewBox="0 0 20 12">
    <path fill="#54306A" fill-rule="nonzero" d="M19.215.499H15.97a.733.733 0 0 0-.646.386s-1.294 2.384-1.71 3.187c-1.119 2.16-1.843 1.481-1.843.479V1.094A1.09 1.09 0 0 0 10.682.005h-2.44a1.955 1.955 0 0 0-1.727.802s1.239-.2 1.239 1.469c0 .414.021 1.605.04 2.604a.72.72 0 0 1-1.255.497A21.246 21.246 0 0 1 4.075.896a.684.684 0 0 0-.622-.397H.504a.501.501 0 0 0-.473.675C.927 3.63 4.784 11.348 9.186 11.348h1.853a.732.732 0 0 0 .732-.732V9.497a.72.72 0 0 1 1.212-.524l2.218 2.084c.199.187.462.291.735.291h2.913c1.404 0 1.404-.975.639-1.729-.54-.53-2.484-2.58-2.484-2.58a1.005 1.005 0 0 1-.078-1.306c.629-.827 1.657-2.182 2.093-2.762.596-.793 1.675-2.472.196-2.472z"/>
</svg>
