<svg xmlns="http://www.w3.org/2000/svg" width="100" height="88" viewBox="0 0 100 88">
    <defs>
        <linearGradient id="a" x1="18.033%" x2="81.967%" y1=".317%" y2="100.317%">
            <stop offset="0%" stop-color="#C3DD89"/>
            <stop offset="100%" stop-color="#91B951"/>
        </linearGradient>
    </defs>
    <g fill="none" fill-rule="evenodd">
        <path fill="#FFF" d="M-769-2872H671v5194H-769z"/>
        <g fill-rule="nonzero">
            <path fill="url(#a)" d="M50 0l43.301 25v50L50 100 6.699 75V25z" transform="rotate(90 53 47)"/>
            <path fill="#FFF" d="M67.302 26.04h-4.757v-2.428A2.62 2.62 0 0 0 59.932 21a2.62 2.62 0 0 0-2.614 2.612v2.428H42.682v-2.428A2.62 2.62 0 0 0 40.069 21a2.62 2.62 0 0 0-2.614 2.612v2.428H32.54c-3.11 0-5.541 2.43-5.541 5.537v28.73C27 63.414 29.431 66 32.541 66h34.761C70.413 66 73 63.388 73 60.307v-28.73c0-3.107-2.587-5.537-5.698-5.537zm-34.76 5.223h4.913v1.803a2.621 2.621 0 0 0 2.614 2.612 2.62 2.62 0 0 0 2.613-2.612v-1.803h14.637v1.803a2.62 2.62 0 0 0 2.614 2.612 2.62 2.62 0 0 0 2.613-2.612v-1.803h4.757c.21 0 .47.08.47.314v6.216H32.227v-6.216c0-.234.105-.314.314-.314zm34.76 29.513h-34.76c-.235 0-.315-.262-.315-.47v-17.29h35.546v17.29c0 .208-.235.47-.47.47z"/>
        </g>
    </g>
</svg>
