<svg xmlns="http://www.w3.org/2000/svg" width="88" height="100" viewBox="0 0 88 100">
    <defs>
        <linearGradient id="a" x1="100%" x2="0%" y1="23.574%" y2="80.689%">
            <stop offset="0%" stop-color="#8D5EA4"/>
            <stop offset="100%" stop-color="#54306A"/>
        </linearGradient>
    </defs>
    <g fill="none" fill-rule="evenodd">
        <path fill="#FFF" d="M-970-2587H470v5194H-970z"/>
        <g fill-rule="nonzero">
            <path fill="url(#a)" d="M50 0l43.301 25v50L50 100 6.699 75V25z" transform="translate(-6)"/>
            <path fill="#FFF" stroke="#FFF" d="M66.273 38.672H56.26v-9.956c0-.972-.748-1.716-1.727-1.716H21.727c-.979 0-1.727.744-1.727 1.716v30.896c0 .973.748 1.716 1.727 1.716H31.74v9.956c0 .972.748 1.716 1.727 1.716h32.805c.979 0 1.727-.744 1.727-1.716V40.388c0-.973-.748-1.716-1.727-1.716zm-42.82-8.24h29.353v27.464H23.453V30.433zm41.094 39.135H35.194v-8.239h19.338c.979 0 1.727-.743 1.727-1.716V42.104h8.288v27.463z"/>
        </g>
    </g>
</svg>
