<svg xmlns="http://www.w3.org/2000/svg" width="88" height="100" viewBox="0 0 88 100">
    <defs>
        <linearGradient id="a" x1="100%" x2="0%" y1="23.574%" y2="80.689%">
            <stop offset="0%" stop-color="#8D5EA4"/>
            <stop offset="100%" stop-color="#54306A"/>
        </linearGradient>
    </defs>
    <g fill="none" fill-rule="evenodd">
        <path fill="#FFF" d="M-1163-2587H277v5194h-1440z"/>
        <g fill-rule="nonzero">
            <path fill="url(#a)" d="M50 0l43.301 25v50L50 100 6.699 75V25z" transform="translate(-6)"/>
            <g fill="#FFF">
                <path d="M57.287 26.108H30.843c-4.79 0-8.67 3.87-8.67 8.649v30.486c0 4.779 3.88 8.649 8.67 8.649h26.444c4.79 0 8.67-3.87 8.67-8.649V34.757c0-4.779-3.88-8.649-8.67-8.649zm4.335 39.135c0 2.379-1.951 4.325-4.335 4.325H30.843c-2.384 0-4.335-1.946-4.335-4.325V34.757c0-2.379 1.951-4.325 4.335-4.325h26.444c2.384 0 4.335 1.946 4.335 4.325v30.486z"/>
                <path d="M57.937 31.946H30.41a2.171 2.171 0 0 0-2.168 2.162v6.703c0 1.189.976 2.162 2.168 2.162h27.527a2.171 2.171 0 0 0 2.167-2.162v-6.703c0-1.19-.975-2.162-2.167-2.162zm-2.168 6.703H32.577V36.27H55.77v2.379zM35.395 45.351h-5.094a2.171 2.171 0 0 0-2.167 2.163c0 1.189.975 2.162 2.167 2.162h5.094a2.171 2.171 0 0 0 2.168-2.162c0-1.19-.954-2.163-2.168-2.163zM35.395 54.216h-5.094a2.171 2.171 0 0 0-2.167 2.162c0 1.19.975 2.163 2.167 2.163h5.094a2.171 2.171 0 0 0 2.168-2.163c0-1.189-.954-2.162-2.168-2.162zM35.395 62.865h-5.094a2.171 2.171 0 0 0-2.167 2.162c0 1.19.975 2.162 2.167 2.162h5.094a2.171 2.171 0 0 0 2.168-2.162c0-1.19-.954-2.162-2.168-2.162zM46.58 45.351h-5.094a2.171 2.171 0 0 0-2.168 2.163c0 1.189.976 2.162 2.168 2.162h5.093a2.171 2.171 0 0 0 2.168-2.162c0-1.19-.976-2.163-2.168-2.163zM46.58 54.216h-5.094a2.171 2.171 0 0 0-2.168 2.162c0 1.19.976 2.163 2.168 2.163h5.093a2.171 2.171 0 0 0 2.168-2.163c0-1.189-.976-2.162-2.168-2.162zM46.58 62.865h-5.094a2.171 2.171 0 0 0-2.168 2.162c0 1.19.976 2.162 2.168 2.162h5.093a2.171 2.171 0 0 0 2.168-2.162c0-1.19-.976-2.162-2.168-2.162zM57.785 45.351h-5.093a2.171 2.171 0 0 0-2.168 2.163c0 1.189.976 2.162 2.168 2.162h5.093a2.171 2.171 0 0 0 2.168-2.162c0-1.19-.976-2.163-2.168-2.163zM57.785 54.216h-5.093a2.171 2.171 0 0 0-2.168 2.162c0 1.19.976 2.163 2.168 2.163h5.093a2.171 2.171 0 0 0 2.168-2.163c0-1.189-.976-2.162-2.168-2.162zM57.785 62.865h-5.093a2.171 2.171 0 0 0-2.168 2.162c0 1.19.976 2.162 2.168 2.162h5.093a2.171 2.171 0 0 0 2.168-2.162c0-1.19-.976-2.162-2.168-2.162z"/>
            </g>
        </g>
    </g>
</svg>
