<svg xmlns="http://www.w3.org/2000/svg" width="100" height="88" viewBox="0 0 100 88">
    <defs>
        <linearGradient id="a" x1="18.033%" x2="81.967%" y1=".317%" y2="100.317%">
            <stop offset="0%" stop-color="#C3DD89"/>
            <stop offset="100%" stop-color="#91B951"/>
        </linearGradient>
    </defs>
    <g fill="none" fill-rule="evenodd">
        <path fill="#FFF" d="M-1157-2872H283v5194h-1440z"/>
        <g fill-rule="nonzero">
            <path fill="url(#a)" d="M50 0l43.301 25v50L50 100 6.699 75V25z" transform="rotate(90 53 47)"/>
            <g fill="#FFF">
                <path d="M63.287 20.108H36.843c-4.79 0-8.67 3.87-8.67 8.649v30.486c0 4.779 3.88 8.649 8.67 8.649h26.444c4.79 0 8.67-3.87 8.67-8.649V28.757c0-4.779-3.88-8.649-8.67-8.649zm4.335 39.135c0 2.379-1.951 4.325-4.335 4.325H36.843c-2.384 0-4.335-1.946-4.335-4.325V28.757c0-2.379 1.951-4.325 4.335-4.325h26.444c2.384 0 4.335 1.946 4.335 4.325v30.486z"/>
                <path d="M63.937 25.946H36.41a2.171 2.171 0 0 0-2.168 2.162v6.703c0 1.189.976 2.162 2.168 2.162h27.527a2.171 2.171 0 0 0 2.167-2.162v-6.703c0-1.19-.975-2.162-2.167-2.162zm-2.168 6.703H38.577V30.27H61.77v2.379zM41.395 39.351h-5.094a2.171 2.171 0 0 0-2.167 2.163c0 1.189.975 2.162 2.167 2.162h5.094a2.171 2.171 0 0 0 2.168-2.162c0-1.19-.954-2.163-2.168-2.163zM41.395 48.216h-5.094a2.171 2.171 0 0 0-2.167 2.162c0 1.19.975 2.163 2.167 2.163h5.094a2.171 2.171 0 0 0 2.168-2.163c0-1.189-.954-2.162-2.168-2.162zM41.395 56.865h-5.094a2.171 2.171 0 0 0-2.167 2.162c0 1.19.975 2.162 2.167 2.162h5.094a2.171 2.171 0 0 0 2.168-2.162c0-1.19-.954-2.162-2.168-2.162zM52.58 39.351h-5.094a2.171 2.171 0 0 0-2.168 2.163c0 1.189.976 2.162 2.168 2.162h5.093a2.171 2.171 0 0 0 2.168-2.162c0-1.19-.976-2.163-2.168-2.163zM52.58 48.216h-5.094a2.171 2.171 0 0 0-2.168 2.162c0 1.19.976 2.163 2.168 2.163h5.093a2.171 2.171 0 0 0 2.168-2.163c0-1.189-.976-2.162-2.168-2.162zM52.58 56.865h-5.094a2.171 2.171 0 0 0-2.168 2.162c0 1.19.976 2.162 2.168 2.162h5.093a2.171 2.171 0 0 0 2.168-2.162c0-1.19-.976-2.162-2.168-2.162zM63.785 39.351h-5.093a2.171 2.171 0 0 0-2.168 2.163c0 1.189.976 2.162 2.168 2.162h5.093a2.171 2.171 0 0 0 2.168-2.162c0-1.19-.976-2.163-2.168-2.163zM63.785 48.216h-5.093a2.171 2.171 0 0 0-2.168 2.162c0 1.19.976 2.163 2.168 2.163h5.093a2.171 2.171 0 0 0 2.168-2.163c0-1.189-.976-2.162-2.168-2.162zM63.785 56.865h-5.093a2.171 2.171 0 0 0-2.168 2.162c0 1.19.976 2.162 2.168 2.162h5.093a2.171 2.171 0 0 0 2.168-2.162c0-1.19-.976-2.162-2.168-2.162z"/>
            </g>
        </g>
    </g>
</svg>
