<svg xmlns="http://www.w3.org/2000/svg" width="88" height="100" viewBox="0 0 88 100">
    <defs>
        <linearGradient id="a" x1="100%" x2="0%" y1="23.574%" y2="80.689%">
            <stop offset="0%" stop-color="#8D5EA4"/>
            <stop offset="100%" stop-color="#54306A"/>
        </linearGradient>
    </defs>
    <g fill="none" fill-rule="evenodd">
        <path fill="#FFF" d="M-190-2587h1440v5194H-190z"/>
        <g fill-rule="nonzero">
            <path fill="url(#a)" d="M50 0l43.301 25v50L50 100 6.699 75V25z" transform="translate(-6)"/>
            <path fill="#FFF" d="M66.636 52.896l-5.665-8.723 5.665-8.723c.455-.704.477-1.59.09-2.34a2.282 2.282 0 0 0-2.001-1.204h-15.97v-3.589c-.023-1.272-1.07-2.294-2.344-2.317H23.253C22 26.023 20.978 27.068 21 28.317v43.411A2.28 2.28 0 0 0 23.275 74a2.28 2.28 0 0 0 2.275-2.272v-20.74h8.873v3.135a2.324 2.324 0 0 0 2.297 2.317h28.005c1.274-.023 2.297-1.045 2.275-2.317 0-.432-.137-.863-.364-1.227zM25.55 46.445V30.543h18.655v15.902H25.55zm30.803-1l4.186 6.452H38.972v-.909h7.44c1.273.023 2.297-.977 2.343-2.249V36.45h11.784l-4.186 6.475c-.5.772-.5 1.749 0 2.521z"/>
        </g>
    </g>
</svg>
