<svg xmlns="http://www.w3.org/2000/svg" width="88" height="100" viewBox="0 0 88 100">
    <defs>
        <linearGradient id="a" x1="100%" x2="0%" y1="23.574%" y2="80.689%">
            <stop offset="0%" stop-color="#8D5EA4"/>
            <stop offset="100%" stop-color="#54306A"/>
        </linearGradient>
    </defs>
    <g fill="none" fill-rule="evenodd">
        <path fill="#FFF" d="M-385-2587h1440v5194H-385z"/>
        <g fill-rule="nonzero">
            <path fill="url(#a)" d="M50 0l43.301 25v50L50 100 6.699 75V25z" transform="translate(-6)"/>
            <g fill="#FFF">
                <path d="M66.982 34.618H21.018c-1.08 0-1.956.883-1.956 1.972v34.438c0 1.09.876 1.972 1.956 1.972h45.964c1.08 0 1.956-.883 1.956-1.972V36.59a1.964 1.964 0 0 0-1.956-1.972zm-1.956 34.438H22.974V38.561h42.052v30.495z"/>
                <path d="M66.917 50.983V47.04H55.116c-1.08 0-1.956.882-1.956 1.971v9.596c0 1.089.876 1.971 1.956 1.971h11.8v-3.943h-9.844v-5.652h9.845zM57.483 22.361a1.944 1.944 0 0 0-1.782-.248L20.365 34.732l1.306 3.716L54.4 26.762v9.828h3.912V23.97c0-.64-.309-1.24-.828-1.61z"/>
            </g>
        </g>
    </g>
</svg>
