<svg xmlns="http://www.w3.org/2000/svg" width="100" height="88" viewBox="0 0 100 88">
    <defs>
        <linearGradient id="a" x1="18.033%" x2="81.967%" y1=".317%" y2="100.317%">
            <stop offset="0%" stop-color="#C3DD89"/>
            <stop offset="100%" stop-color="#91B951"/>
        </linearGradient>
    </defs>
    <g fill="none" fill-rule="evenodd">
        <path fill="#FFF" d="M-379-2872h1440v5194H-379z"/>
        <g fill-rule="nonzero">
            <path fill="url(#a)" d="M50 0l43.301 25v50L50 100 6.699 75V25z" transform="rotate(90 53 47)"/>
            <g fill="#FFF">
                <path d="M72.982 28.618H27.018c-1.08 0-1.956.883-1.956 1.972v34.438c0 1.09.876 1.972 1.956 1.972h45.964c1.08 0 1.956-.883 1.956-1.972V30.59a1.964 1.964 0 0 0-1.956-1.972zm-1.956 34.438H28.974V32.561h42.052v30.495z"/>
                <path d="M72.917 44.983V41.04H61.116c-1.08 0-1.956.882-1.956 1.971v9.596c0 1.089.876 1.971 1.956 1.971h11.8v-3.943h-9.844v-5.652h9.845zM63.483 16.361a1.944 1.944 0 0 0-1.782-.248L26.365 28.732l1.306 3.716L60.4 20.762v9.828h3.912V17.97c0-.64-.309-1.24-.828-1.61z"/>
            </g>
        </g>
    </g>
</svg>
