<svg xmlns="http://www.w3.org/2000/svg" width="100" height="88" viewBox="0 0 100 88">
    <defs>
        <linearGradient id="a" x1="18.033%" x2="81.967%" y1=".317%" y2="100.317%">
            <stop offset="0%" stop-color="#C3DD89"/>
            <stop offset="100%" stop-color="#91B951"/>
        </linearGradient>
    </defs>
    <g fill="none" fill-rule="evenodd">
        <path fill="#FFF" d="M-574-2872H866v5194H-574z"/>
        <g fill-rule="nonzero">
            <path fill="url(#a)" d="M50 0l43.301 25v50L50 100 6.699 75V25z" transform="rotate(90 53 47)"/>
            <g fill="#FFF">
                <path d="M75.69 31.135l-25.339-10.94a2.146 2.146 0 0 0-1.703 0l-25.34 10.94a2.173 2.173 0 0 0-1.307 2c.001.87.518 1.655 1.313 1.997l25.34 10.867a2.15 2.15 0 0 0 1.692 0l25.34-10.867a2.172 2.172 0 0 0 1.313-1.997c0-.87-.514-1.657-1.308-2zM49.5 41.637l-19.846-8.51 19.846-8.57 19.846 8.57-19.846 8.51zM76.824 54.01a2.154 2.154 0 0 0-2.835-1.14L49.5 63.442 25.011 52.87a2.152 2.152 0 0 0-2.835 1.14 2.177 2.177 0 0 0 1.133 2.854l25.34 10.94a2.15 2.15 0 0 0 1.703 0l25.34-10.94a2.179 2.179 0 0 0 1.132-2.854z"/>
                <path d="M76.827 43.147A2.156 2.156 0 0 0 73.993 42L49.5 52.505 25.008 42a2.155 2.155 0 0 0-2.834 1.147A2.178 2.178 0 0 0 23.314 46l25.34 10.867a2.15 2.15 0 0 0 1.693 0l25.34-10.867a2.179 2.179 0 0 0 1.14-2.852z"/>
            </g>
        </g>
    </g>
</svg>
