<svg xmlns="http://www.w3.org/2000/svg" width="88" height="100" viewBox="0 0 88 100">
    <defs>
        <linearGradient id="a" x1="100%" x2="0%" y1="23.574%" y2="80.689%">
            <stop offset="0%" stop-color="#8D5EA4"/>
            <stop offset="100%" stop-color="#54306A"/>
        </linearGradient>
    </defs>
    <g fill="none" fill-rule="evenodd">
        <path fill="#FFF" d="M-775-2587H665v5194H-775z"/>
        <g fill-rule="nonzero">
            <path fill="url(#a)" d="M50 0l43.301 25v50L50 100 6.699 75V25z" transform="translate(-6)"/>
            <path fill="#FFF" d="M61.302 32.04h-4.757v-2.428A2.62 2.62 0 0 0 53.932 27a2.62 2.62 0 0 0-2.614 2.612v2.428H36.682v-2.428A2.62 2.62 0 0 0 34.069 27a2.62 2.62 0 0 0-2.614 2.612v2.428H26.54c-3.11 0-5.541 2.43-5.541 5.537v28.73C21 69.414 23.431 72 26.541 72h34.761C64.413 72 67 69.388 67 66.307v-28.73c0-3.107-2.587-5.537-5.698-5.537zm-34.76 5.223h4.913v1.803a2.621 2.621 0 0 0 2.614 2.612 2.62 2.62 0 0 0 2.613-2.612v-1.803h14.637v1.803a2.62 2.62 0 0 0 2.614 2.612 2.62 2.62 0 0 0 2.613-2.612v-1.803h4.757c.21 0 .47.08.47.314v6.216H26.227v-6.216c0-.234.105-.314.314-.314zm34.76 29.513h-34.76c-.235 0-.315-.262-.315-.47v-17.29h35.546v17.29c0 .208-.235.47-.47.47z"/>
        </g>
    </g>
</svg>
